<?xml version="1.0" encoding="UTF-8" standalone="no"?>
<svg width="9px" height="6px" viewBox="0 0 9 6" version="1.1" xmlns="http://www.w3.org/2000/svg" xmlns:xlink="http://www.w3.org/1999/xlink">
    <!-- Generator: sketchtool 48.2 (47327) - http://www.bohemiancoding.com/sketch -->
    <title>A8C381B7-28B6-4297-A5B7-BE634514CB76</title>
    <desc>Created with sketchtool.</desc>
    <defs></defs>
    <g id="Navigation-/-main-active" stroke="none" stroke-width="1" fill="none" fill-rule="evenodd" transform="translate(-733.000000, -71.000000)">
        <g id="Navigation" fill="#D40618" fill-rule="nonzero" stroke="#D40618" stroke-width="0.5">
            <g id="main-nav" transform="translate(135.000000, 55.000000)">
                <g id="Group-3" transform="translate(540.000000, 8.000000)">
                    <path d="M65.9283776,9.07729469 C65.8318989,8.9742351 65.675121,8.9742351 65.5786422,9.07729469 L62.5033833,12.3687601 L59.4220944,9.07729469 C59.3256157,8.9742351 59.1688377,8.9742351 59.072359,9.07729469 C58.9758803,9.18035427 58.9758803,9.34782609 59.072359,9.45088567 L62.3224857,12.9227053 C62.370725,12.9742351 62.4310242,13 62.4973533,13 C62.5576525,13 62.6239817,12.9742351 62.672221,12.9227053 L65.9223477,9.45088567 C66.0248563,9.34782609 66.0248563,9.18035427 65.9283776,9.07729469 Z" id="Shape" transform="translate(62.500000, 11.000000) scale(1, -1) translate(-62.500000, -11.000000) "></path>
                </g>
            </g>
        </g>
    </g>
</svg>