<svg xmlns="http://www.w3.org/2000/svg" xmlns:xlink="http://www.w3.org/1999/xlink" width="24" height="18" viewBox="0 0 24 18">
    <defs>
        <rect id="a" width="24" height="18" rx="2"/>
        <ellipse id="c" cx="4" cy="4.2" rx="4" ry="4.2"/>
    </defs>
    <g fill="none" fill-rule="evenodd">
        <mask id="b" fill="#fff">
            <use xlink:href="#a"/>
        </mask>
        <use fill="#FFF" xlink:href="#a"/>
        <path fill="#05AB41" d="M0 0h24v18H0z" mask="url(#b)"/>
        <path fill="#FDD216" d="M2.836 9.374c-.304-.207-.31-.537 0-.748l8.614-5.852c.304-.207.79-.21 1.1 0l8.614 5.852c.304.207.31.537 0 .748l-8.614 5.852c-.304.207-.79.21-1.1 0L2.836 9.374z" mask="url(#b)"/>
        <g mask="url(#b)">
            <g transform="translate(8 4.8)">
                <mask id="d" fill="#fff">
                    <use xlink:href="#c"/>
                </mask>
                <use fill="#053087" xlink:href="#c"/>
                <path stroke="#FFF" stroke-linecap="square" stroke-width="1.333" d="M-.571 3.6C0 3 2.066 3.28 4 3.6c1.934.32 4.007 1.207 4.571 1.8" mask="url(#d)" transform="rotate(6 4 4.324)"/>
            </g>
        </g>
    </g>
</svg>
