<svg xmlns="http://www.w3.org/2000/svg" xmlns:xlink="http://www.w3.org/1999/xlink" width="24" height="18" viewBox="0 0 24 18">
    <defs>
        <rect id="a" width="24" height="18" rx="2"/>
    </defs>
    <g fill="none" fill-rule="evenodd">
        <mask id="b" fill="#fff">
            <use xlink:href="#a"/>
        </mask>
        <use fill="#FFF" xlink:href="#a"/>
        <path fill="#F1361D" d="M0 0h24v18H0z" mask="url(#b)"/>
        <path fill="#FFDC42" d="M11.584 5.38l-.716.449.009-.881-.449-.758.845.03.717-.449-.01.881.449.758-.845-.03zM9.45 2.94l-.835-.132.585-.658.159-.867.617.578.836.13-.585.66-.16.866-.617-.578zm.439 7.834l-.7.474-.022-.88-.475-.743.846.001.7-.474.022.88.474.743-.845-.001zm1.434-2.383l-.839.104.38-.794-.085-.877.753.385.839-.104-.38.794.085.877-.753-.385zM5.714 7.404L3.7 8.912l.744-2.478-1.99-1.546 2.475-.024.786-2.464.786 2.464 2.475.024-1.989 1.546.744 2.478z" mask="url(#b)"/>
    </g>
</svg>
